<?xml version="1.0" encoding="UTF-8"?>
<svg id="Layer_1" data-name="Layer 1" xmlns="http://www.w3.org/2000/svg" viewBox="0 0 1000 1000">
  <defs>
    <style>
      .cls-1, .cls-2, .cls-3, .cls-4 {
        opacity: .6;
      }

      .cls-1, .cls-5 {
        fill: #f59e0b;
      }

      .cls-6 {
        fill: #34d399;
      }

      .cls-2, .cls-7 {
        fill: #6366f1;
      }

      .cls-8, .cls-4 {
        fill: #f43f5e;
      }

      .cls-9 {
        fill: #fb7185;
      }

      .cls-10 {
        fill: #818cf8;
      }

      .cls-3, .cls-11 {
        fill: #10b981;
      }

      .cls-12 {
        fill: #fff;
        stroke: #64748b;
        stroke-miterlimit: 10;
      }

      .cls-13 {
        fill: #fbbf24;
      }
    </style>
  </defs>
  <g>
    <polygon class="cls-13" points="1000 219.12 977.05 242.07 718.34 500.79 553.99 500.79 553.99 336.63 554.08 336.53 834.21 53.33 1000 219.12"/>
    <polygon class="cls-8" points="1000 780.75 999.15 781.6 977.05 803.83 944.44 836.45 662.96 554.97 662.57 554.97 608.77 555.07 553.99 555.18 553.61 555.18 499.21 555.29 499.21 500.79 553.99 500.79 718.34 500.79 719.97 502.42 772.62 554.75 976.92 757.8 1000 780.75"/>
    <polygon class="cls-9" points="944.44 836.45 889.66 891.23 835.84 945.04 803.83 977.05 781.67 999.22 780.88 1000 758.06 977.18 499.21 719.9 499.21 555.29 553.61 555.18 553.99 555.18 608.77 555.07 662.57 554.97 662.96 554.97 944.44 836.45"/>
    <polygon class="cls-5" points="834.21 53.33 554.08 336.53 553.99 336.63 553.99 500.79 499.21 500.79 499.21 445.81 499.21 281.67 499.22 281.67 553.99 226.89 757.93 22.95 780.88 0 834.21 53.33"/>
    <polygon class="cls-11" points="499.21 555.29 499.21 719.9 446.3 772.81 242.07 977.05 219.12 1000 165.55 946.43 446.2 663.75 446.2 663.74 446.15 609.36 446.1 500.79 499.21 500.79 499.21 555.29"/>
    <polygon class="cls-7" points="499.21 445.81 499.21 500.79 446.1 500.79 280.09 500.79 22.82 242.07 .13 219.12 .85 218.4 22.94 196.17 56.36 162.75 337.52 444.93 337.53 444.93 499.21 445.81"/>
    <polygon class="cls-10" points="499.21 281.67 499.21 445.81 337.53 444.93 337.52 444.93 56.36 162.75 163.55 55.56 196.17 22.95 218.4 .85 219.25 0 242.19 23.08 497.57 280.02 499.21 281.66 499.21 281.67"/>
    <polygon class="cls-6" points="446.2 663.74 446.2 663.75 165.55 946.43 109.56 890.44 57.59 838.48 22.94 803.83 .78 781.67 0 780.88 22.94 757.93 280.09 500.79 446.1 500.79 446.15 609.36 446.2 663.74"/>
  </g>
  <path class="cls-1" d="m689.08,395.52h0c13.23,2.28,25.8-.91,35.03-9.61,10.5-9.89,13.72-20.17,14.47-27.46.37-3.61,4.17-5.69,7.01-3.84,11.19,7.26,26.48,9.94,36.45,6.01,3.03-1.19,4.07-5.23,2.04-7.67l-22.38-26.94-9.08-10.82,16.97,12.3c1.67,1.21,3.96,1,5.56-.5l55.47-52.26c7.05-6.64,11.45-13.71,13.03-21.29,2.64-10.89-1.62-28.69-16.16-46.19-6.68-8.04-12.14-12.27-15.29-14.32-1.66-1.07-3.84-.81-5.37.63h0c-17.04,15.73-40.12,14.31-59.62,2.2-3.35-2.08-7.69,1.23-6.87,5.31.71,3.57,2.6,7.82,6.87,12.17.18.18.38.35.58.5l26.54,19.21,5.86,4.6,1.5,1.28c.22.19.43.4.62.64,4.11,5.23,4.45,12.13.71,15.65-1.89,1.78-4.53,2.32-7.19,1.78-16.48-1.41-49.4-18.66-70.55,1.27-32.27,30.4,7.57,82.31-16.71,105.18-11.82,11.13-29.07,6.67-39.01-5.3-6.98-8.41-7.45-12.48-7.49-13.17v-.12c4.64,6.34,11.48,9.89,17.22,9.12,6.61-.99,8.85-7.36,8.97-7.84.39-1.34,1.02-3.89.49-7.29-.85-5.29-4.07-10.55-7.9-13.77-6.54-5.53-14.33-4.9-18.7-2.49-8.54,4.63-8.91,18.26-6.28,27.49,0,0,3.17,11.27,16.02,24.39,9.87,10.07,20.89,15.66,20.89,15.66m-.15-.08c.33.16.66.33,1,.49s.66.31.99.46.65.29.98.43.64.27.96.41.63.26.95.38.62.24.93.36.6.23.91.33.59.21.88.31.57.19.85.29.55.18.82.27.53.17.79.25.51.15.76.23c.24.07.48.14.72.21.23.06.45.13.68.19.21.06.43.11.64.17.2.05.4.1.6.15.18.04.37.09.55.13.17.04.33.08.5.11.15.03.3.07.45.1.13.03.26.06.4.08.11.02.23.05.34.07.09.02.19.04.28.05.07.01.15.03.22.04.05,0,.1.02.16.03.03,0,.06.01.09.01,0,0,.01,0,.02,0m94.48-171.37c-1.99-2.39-2.19-5.62-.45-7.25s4.72-1.03,6.71,1.36c1.99,2.39,2.19,5.62.45,7.25-1.74,1.64-4.72,1.03-6.71-1.36h0Z"/>
  <path class="cls-3" d="m317,606.78h0c-13.1-2.94-25.81-.38-35.47,7.85-10.98,9.36-14.7,19.46-15.82,26.71-.55,3.59-4.45,5.47-7.19,3.49-10.82-7.81-25.95-11.25-36.1-7.82-3.08,1.04-4.33,5.02-2.42,7.56l21.01,28.01,8.53,11.26-16.34-13.13c-1.6-1.29-3.91-1.2-5.58.23l-58,49.44c-7.37,6.28-12.11,13.12-14.07,20.62-3.17,10.75.19,28.74,13.84,46.94,6.27,8.36,11.51,12.86,14.56,15.06,1.6,1.16,3.79,1,5.4-.37h0c17.81-14.86,40.78-12.3,59.66.76,3.25,2.25,7.74-.85,7.13-4.96-.54-3.6-2.21-7.94-6.26-12.5-.17-.19-.36-.37-.56-.53l-25.55-20.5-5.62-4.88-1.43-1.35c-.21-.2-.41-.42-.59-.67-3.84-5.42-3.84-12.34.07-15.67,1.97-1.68,4.64-2.09,7.27-1.42,16.39,2.23,48.41,21.09,70.52,2.24,33.74-28.76-3.47-82.58,21.91-104.22,12.36-10.53,29.36-5.21,38.69,7.23,6.56,8.74,6.82,12.84,6.83,13.53v.12c-4.33-6.57-10.98-10.45-16.75-9.96-6.65.66-9.2,6.91-9.35,7.39-.46,1.32-1.21,3.83-.86,7.26.59,5.32,3.54,10.73,7.2,14.14,6.26,5.85,14.07,5.6,18.56,3.41,8.76-4.2,9.8-17.79,7.64-27.14,0,0-2.6-11.42-14.78-25.16-9.36-10.55-20.08-16.68-20.08-16.68m.15.09c-.32-.18-.65-.36-.97-.53s-.64-.34-.97-.51-.64-.32-.96-.48-.63-.31-.94-.46-.62-.29-.93-.43-.6-.27-.91-.4-.59-.26-.89-.38-.58-.24-.86-.35-.56-.22-.84-.33-.54-.21-.81-.31-.52-.19-.78-.28-.5-.18-.75-.26c-.24-.08-.47-.16-.71-.24-.22-.07-.45-.15-.67-.22-.21-.07-.42-.13-.63-.2-.2-.06-.39-.12-.59-.18-.18-.05-.36-.11-.54-.16-.16-.05-.33-.09-.5-.14-.15-.04-.3-.08-.44-.12-.13-.03-.26-.07-.39-.1-.11-.03-.22-.06-.34-.08-.09-.02-.19-.05-.28-.07-.07-.02-.14-.03-.22-.05-.05-.01-.1-.02-.15-.04-.03,0-.06-.01-.09-.02,0,0-.01,0-.02,0m-102.87,166.47c1.87,2.49,1.91,5.72.09,7.27-1.82,1.55-4.76.8-6.63-1.69-1.87-2.49-1.91-5.72-.09-7.27,1.82-1.55,4.76-.8,6.63,1.69h0Z"/>
  <path class="cls-2" d="m395.91,312.19h0c2.25-13.23-.98-25.8-9.71-35.01-9.92-10.47-20.2-13.66-27.51-14.39-3.61-.36-5.7-4.16-3.86-7,7.23-11.21,9.87-26.51,5.91-36.46-1.2-3.02-5.24-4.06-7.68-2.02l-26.87,22.45-10.8,9.11,12.25-17c1.2-1.67.99-3.97-.52-5.56l-52.42-55.32c-6.66-7.03-13.74-11.41-21.33-12.96-10.9-2.6-28.69,1.7-46.15,16.29-8.02,6.7-12.24,12.17-14.27,15.33-1.07,1.66-.8,3.84.65,5.37h0c15.78,17,14.43,40.07,2.37,59.62-2.07,3.36,1.26,7.69,5.33,6.86,3.57-.72,7.81-2.63,12.15-6.91.18-.18.35-.38.5-.59l19.13-26.6,4.58-5.87,1.27-1.5c.19-.22.4-.44.63-.62,5.21-4.12,12.12-4.48,15.65-.75,1.78,1.88,2.33,4.53,1.8,7.19-1.36,16.49-18.51,49.45,1.47,70.54,30.5,32.18,82.29-7.81,105.23,16.4,11.17,11.78,6.75,29.05-5.18,39.02-8.39,7.01-12.46,7.48-13.15,7.53h-.12c6.33-4.66,9.86-11.51,9.07-17.24-1.01-6.61-7.38-8.82-7.87-8.95-1.34-.39-3.89-1.01-7.29-.47-5.29.87-10.53,4.1-13.74,7.93-5.51,6.56-4.86,14.35-2.43,18.71,4.66,8.53,18.28,8.85,27.51,6.2,0,0,11.26-3.2,24.35-16.09,10.05-9.9,15.6-20.93,15.6-20.93m-.08.15c.16-.33.32-.66.48-1s.31-.66.46-.99.29-.65.43-.98.27-.64.41-.96.26-.63.38-.95.24-.62.36-.93.22-.6.33-.91.21-.59.31-.88.19-.57.29-.85.18-.55.26-.83.16-.53.24-.79.15-.51.22-.76c.07-.24.14-.48.2-.72.06-.23.12-.46.18-.68.06-.21.11-.43.17-.64.05-.2.1-.4.15-.6.04-.18.09-.37.13-.55.04-.17.08-.33.11-.5.03-.15.07-.3.1-.45.03-.13.06-.26.08-.4.02-.11.05-.23.07-.34.02-.09.04-.19.05-.28.01-.07.03-.15.04-.22,0-.05.02-.1.03-.16,0-.03,0-.06.01-.09,0,0,0-.01,0-.02m-171.65-93.98c-2.39,1.99-5.61,2.2-7.25.47-1.64-1.73-1.05-4.72,1.34-6.71s5.61-2.2,7.25-.47c1.64,1.73,1.05,4.72-1.34,6.71h0Z"/>
  <path class="cls-4" d="m607.77,682.64h0c-2.97,13.09-.43,25.81,7.77,35.49,9.33,11,19.43,14.75,26.67,15.88,3.59.56,5.46,4.46,3.47,7.2-7.84,10.8-11.3,25.93-7.9,36.08,1.03,3.08,5.01,4.34,7.56,2.44l28.06-20.95,11.28-8.5-13.17,16.31c-1.29,1.6-1.2,3.91.21,5.58l49.3,58.11c6.27,7.39,13.09,12.14,20.58,14.11,10.74,3.2,28.74-.13,46.97-13.74,8.38-6.25,12.89-11.48,15.09-14.52,1.16-1.6,1.01-3.79-.35-5.4h0c-14.82-17.84-12.21-40.81.9-59.66,2.25-3.24-.83-7.74-4.95-7.14-3.6.53-7.94,2.19-12.51,6.23-.19.17-.37.36-.53.56l-20.56,25.51-4.9,5.61-1.35,1.43c-.2.21-.43.41-.67.58-5.43,3.83-12.35,3.81-15.67-.1-1.68-1.98-2.08-4.65-1.4-7.28,2.26-16.39,21.2-48.36,2.4-70.52-28.68-33.81-82.59,3.29-104.17-22.15-10.5-12.38-5.15-29.37,7.31-38.68,8.76-6.54,12.85-6.79,13.54-6.8h.12c-6.58,4.31-10.47,10.96-10,16.73.64,6.65,6.89,9.22,7.37,9.37,1.32.46,3.83,1.22,7.25.87,5.33-.58,10.74-3.52,14.16-7.17,5.87-6.25,5.63-14.06,3.45-18.55-4.18-8.77-17.77-9.84-27.12-7.7,0,0-11.42,2.58-25.19,14.73-10.57,9.34-16.73,20.05-16.73,20.05m.09-.15c-.18.32-.36.64-.54.97s-.34.64-.51.96-.33.63-.48.95-.31.63-.46.94-.29.62-.43.93-.27.6-.41.91-.26.59-.38.89-.24.57-.36.86-.22.56-.33.84-.21.54-.31.81-.19.52-.29.78-.18.5-.26.75c-.08.24-.16.47-.24.71-.07.22-.15.45-.22.67-.07.21-.13.42-.2.63-.06.2-.12.39-.18.59-.05.18-.11.36-.16.54-.05.16-.09.33-.14.49-.04.15-.08.3-.12.44-.04.13-.07.26-.1.39-.03.11-.06.22-.09.34-.02.09-.05.18-.07.28-.02.07-.03.14-.05.22-.01.05-.02.1-.04.15,0,.03-.01.06-.02.09,0,0,0,.01,0,.02m166.24,103.25c2.49-1.86,5.72-1.89,7.27-.07,1.54,1.82.79,4.77-1.71,6.63s-5.72,1.89-7.27.07c-1.54-1.82-.79-4.77,1.71-6.63h0Z"/>
  <path class="cls-12" d="m579.74,756.03h0c29.47-22.15,46.76-51.93,46.76-84.12,0-67.16-48.7-88.45-48.7-88.45,51.14-2.08,110.8-45.35,110.8-82.39h-111.05l-38.72.17,65.99-15.4v-202.86c0-24.58-5.84-44.66-18.02-60.06-16.8-22.85-60.39-43.44-122.73-43.44-45.78,0-66.24,9.69-66.24,9.69v8.48c-.73,65.25-57.47,110.77-128.09,125.31,0,0,12.18,27,56.25,23.19l89.37-20.94,20.21-3.98,6.58-1.04c18.75,0,33.85,10.73,33.85,24.06,0,6.58-3.9,12.64-9.98,16.96-33.85,29.94-130.28,66.29-130.28,140.03,0,112.51,178.74,118.91,178.74,203.55,0,41.19-41.4,67.68-84.01,67.68-29.95,0-38.96-5.71-40.42-6.75l-.24-.17c21.43,1.21,41.4-6.4,50.65-18.87,10.47-14.54,1.95-29.25,1.22-30.29-1.95-2.94-5.84-8.31-13.64-12.81-12.18-6.92-28.74-9.17-42.37-6.92-23.38,3.81-36.77,20.08-40.18,32.54-6.82,24.23,19.73,47.08,43.1,56.94,0,0,28.49,12.12,78.9,8.31,38.72-2.94,70.62-15.4,70.62-15.4l41.64-23.02Zm-42.37,23.19h0c24.84-9.87,42.37-23.19,42.37-23.19l-42.37,23.19Zm-122.25-486.37c-8.52,0-15.34-4.85-15.34-10.9s6.82-10.9,15.34-10.9,15.34,4.85,15.34,10.9c0,6.06-6.82,10.9-15.34,10.9h0Z"/>
</svg>